<svg width="58" height="58" viewBox="0 0 58 58" fill="none" xmlns="http://www.w3.org/2000/svg">
<path d="M57.3357 36.6601V40.5814C57.3357 41.2331 57.3073 41.8876 57.2507 42.5364C56.4573 51.4898 50.2382 57.3378 41.2678 57.3378H16.734C12.1922 57.3378 8.35866 55.8644 5.60466 53.1898C4.51446 52.188 3.60321 51.0075 2.91016 49.6991C3.84516 48.5601 4.89349 47.3134 5.91916 46.0639C7.42764 44.2647 8.91337 42.4465 10.376 40.6098C11.9343 38.6774 16.054 33.5944 21.7603 35.9801C22.922 36.4618 23.9448 37.1418 24.8827 37.7396C27.1833 39.2753 28.1467 39.7286 29.7645 38.8474C31.5552 37.8841 32.7197 35.9801 33.938 33.9911C34.5897 32.9371 35.2442 31.9171 35.9553 30.9793C39.0493 26.9474 43.8178 25.8679 47.793 28.2536C49.782 29.4436 51.4848 30.9509 53.0743 32.4838C53.4143 32.8238 53.7543 33.1383 54.066 33.4499C54.491 33.8749 55.9133 35.2973 57.3328 36.6601H57.3357Z" fill="#A1B2C3" fill-opacity="0.4"/>
<path opacity="0.4" d="M41.2951 0.671875H16.733C7.1138 0.671875 0.667969 7.40388 0.667969 17.4282V40.5822C0.667969 44.0729 1.4613 47.1725 2.91197 49.6999C3.84697 48.5609 4.89814 47.3142 5.92097 46.0619C7.43004 44.2641 8.91578 42.4468 10.3778 40.6105C11.939 38.6782 16.0558 33.5952 21.7621 35.9809C22.9238 36.4625 23.9466 37.1425 24.8845 37.7404C27.1851 39.276 28.1485 39.7294 29.7663 38.8454C31.557 37.882 32.7215 35.9809 33.9398 33.989C34.5915 32.9407 35.246 31.9207 35.9571 30.98C39.0511 26.9482 43.8196 25.8687 47.7948 28.2544C49.7838 29.4444 51.4866 30.9517 53.0761 32.4845C53.4161 32.8245 53.7561 33.139 54.0678 33.4535C54.4956 33.8757 55.9151 35.2952 57.3346 36.6637V17.4282C57.3346 7.40388 50.8916 0.671875 41.2951 0.671875Z" fill="#A1B2C3" fill-opacity="0.4"/>
<path d="M27.4559 19.925C27.4389 21.8588 26.6634 23.7085 25.2963 25.0762C23.9291 26.4439 22.0797 27.2201 20.1459 27.2379C16.1566 27.2379 12.8359 23.9144 12.8359 19.925C12.8359 15.9357 16.1566 12.6094 20.1459 12.6094C24.1324 12.6094 27.4559 15.9357 27.4559 19.925Z" fill="#A1B2C3" fill-opacity="0.4"/>
</svg>
